<svg width="50" height="50" viewBox="0 0 50 50" fill="none" xmlns="http://www.w3.org/2000/svg">
<path d="M0 4.54545C0 2.03507 2.16636 0 4.83871 0H45.1613C47.8336 0 50 2.03507 50 4.54545V45.4545C50 47.9649 47.8336 50 45.1613 50H4.83871C2.16637 50 0 47.9649 0 45.4545V4.54545Z" fill="#2BD268"/>
<path d="M12.8076 30.0661C11.0775 31.0045 9.08434 29.3049 9.91162 27.5966C10.0554 27.2998 10.2769 27.042 10.5555 26.8474L34.7229 9.96689C36.5459 8.69353 39.1433 9.19808 40.2791 11.0463C41.3281 12.753 40.7056 14.9354 38.8888 15.9208L12.8076 30.0661Z" fill="white"/>
<path d="M40.8364 24.9879C42.5665 24.0495 41.9962 21.5782 40.0078 21.3971C39.6622 21.3656 39.3138 21.417 38.9951 21.5463L11.3493 32.7672C9.26387 33.6136 8.43036 35.9789 9.56625 37.8271C10.6152 39.5338 12.9384 40.1186 14.7552 39.1332L40.8364 24.9879Z" fill="white"/>
</svg>
